<?xml version="1.0" encoding="UTF-8"?>
<svg width="1024" height="1024" viewBox="0 0 1024 1024" xmlns="http://www.w3.org/2000/svg">
  <defs>
    <linearGradient id="maroonGrad" x1="0%" y1="0%" x2="0%" y2="100%">
      <stop offset="0%" style="stop-color:#6B0000;stop-opacity:1" />
      <stop offset="100%" style="stop-color:#400000;stop-opacity:1" />
    </linearGradient>
  </defs>
  <circle cx="512" cy="512" r="480" fill="url(#maroonGrad)"/>
  <circle cx="512" cy="512" r="440" fill="none" stroke="#C4A777" stroke-width="8"/>
  <g transform="translate(512, 512)">
    <path d="M-200 -80 L0 -220 L200 -80 L200 -60 L0 -200 L-200 -60 Z" fill="#F5F5F0" stroke="#C4A777" stroke-width="4"/>
    <rect x="100" y="-200" width="40" height="60" fill="#F5F5F0" stroke="#C4A777" stroke-width="3"/>
    <rect x="-180" y="-60" width="360" height="260" fill="#F5F5F0" stroke="#C4A777" stroke-width="4" rx="8"/>
    <rect x="-40" y="60" width="80" height="140" fill="#500000" stroke="#C4A777" stroke-width="3" rx="4"/>
    <circle cx="25" cy="130" r="8" fill="#C4A777"/>
    <rect x="-140" y="-20" width="70" height="70" fill="#500000" stroke="#C4A777" stroke-width="3" rx="4"/>
    <rect x="70" y="-20" width="70" height="70" fill="#500000" stroke="#C4A777" stroke-width="3" rx="4"/>
  </g>
  <text x="512" y="920" text-anchor="middle" font-family="Georgia, serif" font-size="100" font-weight="bold" fill="#F5F5F0" letter-spacing="20">RAH</text>
  <polygon points="512,720 522,750 555,750 528,770 538,800 512,780 486,800 496,770 469,750 502,750" fill="#C4A777"/>
</svg>
